<?xml version="1.0" encoding="UTF-8"?>
<svg width="66px" height="46px" viewBox="0 0 66 46" version="1.1" xmlns="http://www.w3.org/2000/svg" xmlns:xlink="http://www.w3.org/1999/xlink">
    <title>Logo Black</title>
    <g id="New-Options" stroke="none" stroke-width="1" fill="none" fill-rule="evenodd">
        <path d="M60.6378191,9.64877843 C65.8580216,17.2509965 67.4005581,26.2270594 64.6741176,33.472505 C60.2097521,43.9293425 53.7866956,44.2471411 48.9593273,40.6944135 C47.375318,42.0863969 45.5100258,43.0358795 43.4894793,43.1564695 C41.4123603,43.2805709 39.3258746,42.2316923 37.6262983,40.3746984 C32.350542,47.0678055 26.9254177,46.489007 23.0620951,43.0736702 C20.8726662,44.8560798 18.0372256,46 14.374447,46 C0.0236974495,46 -1.9136874,31.5094276 1.38707795,24.5853642 C3.1092164,20.9728093 6.19852674,18.2735422 10.9404502,17.0957847 L11.179,17.0376447 L11.1661592,16.9670041 C10.9480744,15.8083774 10.7290342,14.6297592 10.5151734,13.468617 L10.3875276,12.7743285 C9.37211846,7.24159378 8.50431442,2.28415701 8.46258656,2.04562216 L8.46101647,2.03664473 C9.78209179,2.38576521 29.7299446,3.9560103 30.303949,23.7289828 C30.3460593,26.4923525 29.7955731,33.6765955 26.4369437,39.1446142 C29.5529356,39.8220889 32.6992722,38.6395197 34.6555813,37.1956597 C34.8609531,37.0196833 35.0590693,36.8406263 35.2501847,36.6589768 C34.4703284,34.8899719 33.9649577,32.844595 33.8531931,30.6350004 C33.6227581,28.249822 33.9454953,25.0851006 34.3605348,25.3146593 C34.7542924,25.5321445 33.2069434,30.6080764 36.7511689,35.0134462 C40.1660073,30.6980195 40.4401734,25.7964775 40.4401734,25.7964775 C39.6604121,14.0653916 31.2952041,8.24958643 31.2952041,8.24958643 C32.0339423,12.9061203 34.2171458,22.8052004 32.8153061,23.0864098 C32.5187063,22.8155454 31.634658,18.3515665 30.7467808,13.4923082 L30.6284257,12.8423981 C30.6087131,12.7338005 30.5890115,12.625091 30.5693272,12.5163114 L30.4279881,11.7324618 C30.3900635,11.5214091 30.3522617,11.3104687 30.3146295,11.099944 L30.202288,10.4699208 C29.3456169,5.6539607 28.6032916,1.21853576 28.5429184,0.857278059 L28.5389577,0.833565985 L28.5389577,0.833565985 C28.9613685,-0.350574167 35.4004089,5.94953607 38.9117386,13.0323776 C42.6880646,21.2708961 43.2619673,30.63334 39.6120486,37.4342524 C41.619381,38.5231535 44.009309,38.8325071 46.2548714,38.1129287 C45.754673,37.5121665 45.2912189,36.8713676 44.869846,36.202659 C42.4090948,32.297611 42.1139201,27.7912467 42.9856631,24.1798424 C43.1228345,24.0810046 43.1590503,24.331925 43.1487945,24.4345888 C42.9475244,26.4655453 43.0798883,29.8614195 45.952474,33.5302135 C47.0871151,34.7977635 48.2710941,35.6662219 49.4590865,36.2197457 C51.4491923,34.3864058 53.0215687,31.371971 53.6327867,26.9199759 C53.5722134,26.1059991 53.2450093,25.5124345 53.1527972,25.2277877 L53.14,25.185 L53.1334289,25.2311478 C53.0462802,25.7525756 52.6665896,27.2251773 51.147037,27.36634 C47.7815319,27.8248196 47.2700239,24.9017725 47.6389122,21.966291 C48.0078005,19.0308095 50.0823567,17.2877577 52.5261217,18.8930743 C54.9695662,20.4983908 55.983929,26.4152656 53.4020312,33.9833687 C53.0556768,34.9778098 52.5866377,35.9873413 52.0132919,36.9553777 C55.4334391,37.377473 58.6100592,35.6245429 60.4102685,33.7999449 C64.9821121,28.4349675 64.243374,21.8016783 64.243374,21.8016783 C61.5464189,10.5322605 51.4008681,6.9664491 51.4008681,6.9664491 C51.5947799,7.53809175 51.8272022,8.19159693 52.0819507,8.89717581 L52.5611147,10.217023 C52.7816858,10.8228977 53.010331,11.4506606 53.2387641,12.0850598 L53.45485,12.6875748 C53.5506281,12.9558146 53.6459046,13.2243772 53.740061,13.4921239 L53.9266973,14.0261921 C55.1585396,17.5748973 56.1179544,20.8436303 55.338775,21.1337263 C55.0081047,20.9221953 53.4566379,16.882245 51.8170263,12.4075684 L51.5930029,11.7950094 L51.5930029,11.7950094 L51.3212686,11.0490182 L51.105166,10.4536057 C50.9253624,9.95745447 50.7464622,9.46196275 50.5699541,8.97159088 L50.3593877,8.38588762 C48.7901807,4.01582664 47.4629611,0.204989704 47.4629611,0.204989704 C47.6850633,-1.01294659 56.0095685,3.33145129 60.6378191,9.64877843 Z M13.2081903,18.7642793 L12.865,18.8356447 L12.922374,19.1623818 C13.7192115,23.7286044 14.2670927,27.8033416 13.6359606,28.136195 L13.5850709,28.1543639 C13.3323163,27.9235403 12.5302673,24.0883095 11.6334468,19.4245626 L11.58,19.1476447 L11.4219566,19.1906673 C7.6274452,20.2419458 4.0105729,22.2277391 2.00113315,25.6846773 L1.81750109,26.0130916 C-0.11988376,29.6535095 2.96550978,37.5053726 8.77766432,39.7898002 C11.6514518,40.9191651 16.1039702,41.1934577 20.114328,39.4564342 C19.6606843,38.6972328 19.2613308,37.8974026 18.9231831,37.0760979 C17.1476476,32.7626267 17.6085176,28.1991916 19.0712512,24.7220153 C19.2231653,24.645177 19.2170759,24.902474 19.1898339,25.0038624 C18.6523659,27.0061241 18.2158533,30.4303743 20.4375162,34.5739084 C21.265767,35.9011965 22.1899849,36.9022411 23.1655416,37.6354993 C25.921383,35.4505749 28.1157462,31.9348309 28.8687778,26.5841188 C29.0237879,23.5389656 28.5348135,20.963307 27.6286667,18.7867878 L27.606,18.7356447 L27.602,18.7336447 L27.5913685,18.7355233 C26.6964982,18.773316 25.022066,18.6238734 22.2351392,18.3374054 L21.9086146,18.3037462 C19.6136179,18.0665502 16.4271949,18.1126141 13.2081903,18.7642793 Z M10.7207147,7.24039595 C11.0049338,9.06690329 11.725152,12.6372903 12.4086137,16.3184122 L12.493,16.7746447 L12.7966952,16.7266343 C16.5588574,16.1521409 21.2186581,16.4270327 26.886759,17.7871089 L27.207,17.8646447 L27.141879,17.7314641 C22.6399623,8.8679472 11.0143136,7.27919726 10.7207147,7.24039595 Z M45.9387248,0.187326439 C45.7945026,0.510302738 44.9528859,2.1248654 44.9528859,2.1248654 C44.1593434,2.4478417 43.4725252,3.1272716 43.3353539,3.50126094 C43.2392058,3.96771141 43.4984852,4.21799413 43.9071148,4.28941238 C44.3157443,4.36114947 45.4458054,4.14593821 45.7582868,4.07420113 C46.0710887,4.00246404 46.5277923,3.89501783 46.4435025,4.60059192 C46.3233173,5.4974649 45.5781693,6.98035016 44.6522628,8.17628707 C43.7266768,9.37222399 41.1781103,10.1737664 39.6871733,10.3051249 C38.1965568,10.4368023 37.8485005,10.2869515 38.0882299,10.2455034 C38.6414021,10.149854 40.3845677,9.59955084 42.1636287,8.71447463 C43.9430101,7.82971725 45.3496572,6.31080403 45.3496572,6.17912662 C45.2897249,5.99962449 44.8689166,6.10738954 43.7866091,6.35862875 C42.7046221,6.60954913 42.1636287,5.90397505 42.2479185,5.37790309 C42.3322084,4.85183113 42.8972389,3.12950343 43.9311518,1.76617998 C44.9650647,0.402856526 45.9627618,0.019939907 45.9387248,0.187326439 Z" id="Logo-Black" fill="#000000"></path>
    </g>
</svg>