<?xml version="1.0" standalone="no"?>
<!DOCTYPE svg PUBLIC "-//W3C//DTD SVG 20010904//EN"
 "http://www.w3.org/TR/2001/REC-SVG-20010904/DTD/svg10.dtd">
<svg version="1.0" xmlns="http://www.w3.org/2000/svg"
 width="1056.000000pt" height="1056.000000pt" viewBox="0 0 1056.000000 1056.000000"
 preserveAspectRatio="xMidYMid meet">
<metadata>
Created by potrace 1.14, written by Peter Selinger 2001-2017
</metadata>
<g transform="translate(0.000000,1056.000000) scale(0.100000,-0.100000)"
fill="#000000" stroke="none">
<path d="M7611 8951 c-16 -10 -24 -41 -11 -41 4 0 10 -12 13 -27 2 -16 28 -93
57 -173 29 -80 54 -154 57 -165 3 -11 9 -29 14 -40 7 -18 53 -146 132 -370 95
-270 183 -517 202 -565 8 -19 28 -75 45 -125 17 -49 34 -99 39 -110 5 -11 15
-38 22 -60 6 -22 15 -44 19 -50 4 -5 11 -21 15 -35 13 -46 187 -525 205 -565
5 -11 36 -94 70 -185 34 -91 94 -246 133 -345 39 -99 72 -182 73 -185 5 -24
121 -280 139 -306 21 -32 30 -30 49 9 15 33 16 144 1 222 -5 27 -37 173 -40
185 -1 3 -5 19 -9 35 -24 91 -69 245 -81 278 -8 20 -15 39 -15 42 -1 9 -134
411 -147 445 -4 8 -7 17 -8 20 -1 3 -4 12 -8 20 -3 8 -17 49 -32 90 -15 41
-46 131 -71 200 -24 69 -48 134 -53 145 -5 11 -22 58 -39 105 -26 74 -94 264
-138 385 -7 23 -14 44 -14 49 0 11 32 -1 128 -45 46 -22 88 -39 92 -39 5 0 10
-3 12 -7 2 -5 28 -20 58 -35 83 -42 162 -87 180 -103 9 -8 20 -15 24 -15 9 0
264 -173 292 -198 10 -9 40 -33 66 -52 111 -86 364 -325 463 -440 187 -215
367 -488 488 -740 79 -164 174 -408 169 -432 -1 -5 2 -8 6 -8 5 0 9 -6 9 -12
1 -7 8 -40 18 -73 43 -151 48 -182 48 -325 1 -129 -7 -277 -18 -350 -3 -14 -7
-43 -10 -65 -8 -65 -17 -116 -37 -205 -6 -30 -12 -57 -13 -60 -10 -47 -31
-122 -42 -147 -7 -18 -11 -33 -9 -33 2 0 -5 -24 -16 -53 -11 -28 -23 -63 -27
-77 -28 -88 -152 -353 -171 -365 -5 -3 -8 -10 -5 -15 3 -4 -2 -13 -10 -20 -8
-7 -15 -16 -15 -21 0 -10 -133 -210 -154 -231 -9 -9 -16 -19 -16 -22 0 -17
-132 -153 -205 -211 -27 -22 -56 -46 -63 -52 -7 -7 -17 -13 -21 -13 -4 0 -16
-8 -27 -18 -23 -21 -152 -102 -162 -102 -4 0 -24 -11 -45 -25 -20 -14 -37 -24
-37 -21 0 2 -28 -9 -62 -26 -135 -65 -342 -121 -503 -134 -111 -10 -267 -5
-280 7 -3 4 14 44 39 89 26 45 46 84 46 86 0 11 45 100 53 105 5 3 8 9 7 13
-2 6 29 92 51 141 17 38 113 353 124 405 4 18 25 109 30 130 12 44 35 156 40
188 2 20 11 73 18 117 8 44 15 87 15 95 1 8 3 33 6 55 29 252 26 566 -9 775
-14 88 -55 250 -74 295 -28 66 -93 200 -100 205 -4 3 -17 22 -30 43 -12 20
-28 37 -33 37 -6 0 -9 3 -5 6 11 12 -108 103 -178 138 -94 45 -144 59 -213 59
-127 0 -235 -51 -325 -153 -45 -52 -116 -184 -133 -245 -11 -43 -11 -45 -14
-47 -4 -6 -16 -61 -24 -113 -30 -190 -24 -391 18 -579 12 -52 68 -149 114
-198 78 -83 183 -122 322 -121 146 1 233 28 298 93 41 41 76 90 65 90 -4 0 -3
4 3 8 7 4 23 40 36 80 l25 74 21 -59 c40 -109 50 -161 47 -225 -2 -34 -6 -73
-8 -84 -3 -12 -8 -37 -11 -55 -3 -19 -8 -45 -11 -59 -2 -14 -12 -61 -21 -105
-9 -44 -20 -85 -25 -91 -5 -6 -7 -13 -4 -16 6 -5 -52 -193 -95 -307 -47 -129
-139 -312 -214 -431 -77 -121 -272 -341 -285 -323 -3 4 -24 17 -46 28 -22 11
-43 24 -46 28 -3 5 -10 9 -15 9 -14 1 -112 65 -178 117 -170 132 -274 246
-393 429 -103 159 -216 401 -248 532 -3 8 -11 40 -20 70 -9 30 -17 66 -20 80
-2 14 -8 48 -14 76 -22 112 -33 343 -21 461 6 69 2 95 -13 90 -12 -4 -31 -79
-53 -217 -18 -114 -26 -237 -25 -395 1 -147 4 -213 15 -291 3 -21 8 -57 11
-79 12 -81 28 -168 40 -212 2 -10 9 -38 16 -63 6 -25 13 -52 17 -60 8 -21 8
-22 16 -55 4 -16 11 -39 16 -50 4 -11 18 -47 31 -80 12 -33 44 -106 71 -162
26 -56 48 -107 48 -113 0 -5 5 -10 10 -10 6 0 10 -5 10 -10 0 -6 16 -36 35
-66 19 -30 35 -58 35 -63 0 -5 3 -11 8 -13 4 -1 25 -30 46 -63 21 -33 67 -97
102 -141 l63 -82 -27 -8 c-15 -4 -31 -9 -37 -9 -5 -1 -28 -7 -50 -13 -72 -20
-138 -26 -295 -25 -155 1 -171 2 -265 23 -27 6 -59 13 -70 15 -75 13 -320 118
-313 133 78 159 118 243 118 248 0 3 6 20 14 37 27 61 77 200 79 219 1 10 6
18 11 18 5 0 7 2 4 6 -3 3 1 26 9 52 19 61 55 203 56 220 0 6 4 12 9 12 5 0 7
4 4 9 -3 4 1 39 9 77 16 77 25 127 30 164 1 14 6 48 10 75 3 28 8 65 11 83 14
105 18 217 18 472 -1 157 -3 314 -7 350 -9 96 -17 180 -22 220 -3 19 -7 53
-10 75 -10 81 -14 106 -24 157 -6 29 -12 67 -15 83 -4 27 -33 163 -40 190 -2
6 -6 28 -11 50 -4 22 -14 65 -22 95 -8 30 -16 62 -18 70 -1 8 -11 42 -20 75
-10 33 -17 61 -17 62 1 2 -6 22 -14 45 -9 24 -17 50 -19 58 -1 8 -19 62 -40
120 -20 58 -38 112 -40 120 -16 64 -137 345 -214 500 -113 225 -387 673 -462
756 -11 11 -19 23 -19 27 0 11 -219 298 -285 373 -5 7 -23 29 -40 50 -16 21
-41 50 -55 65 -14 16 -47 54 -75 86 -90 106 -379 387 -455 444 -93 70 -172
112 -202 107 -20 -3 -23 -8 -22 -48 2 -48 8 -93 25 -180 12 -63 15 -80 23
-135 3 -22 8 -51 11 -65 3 -14 8 -41 10 -60 2 -19 6 -46 10 -60 3 -14 8 -41
11 -60 3 -19 9 -57 14 -85 18 -99 36 -200 46 -265 3 -19 7 -46 10 -60 3 -14 6
-34 8 -45 2 -11 7 -35 10 -52 3 -18 8 -45 10 -60 3 -16 12 -71 22 -123 9 -52
18 -104 19 -115 2 -11 6 -36 10 -55 8 -42 24 -133 31 -175 3 -16 7 -39 9 -50
2 -11 6 -31 9 -45 3 -14 8 -38 10 -55 3 -16 7 -41 10 -55 3 -14 7 -41 10 -60
9 -54 15 -91 26 -140 5 -25 12 -63 15 -85 10 -61 15 -86 26 -133 5 -24 7 -48
4 -53 -4 -5 -1 -9 5 -9 6 0 9 -3 7 -7 -3 -5 1 -37 9 -73 7 -36 16 -83 20 -105
3 -22 7 -42 9 -45 2 -3 6 -24 9 -46 8 -52 14 -82 20 -102 3 -9 8 -34 10 -56 3
-21 8 -46 10 -55 3 -9 8 -29 11 -46 2 -16 7 -41 10 -55 3 -14 8 -38 11 -55 3
-16 10 -50 15 -75 12 -53 12 -52 34 -155 21 -102 62 -266 82 -328 11 -33 20
-47 31 -45 24 5 50 57 58 118 8 63 8 251 0 325 -3 28 -8 73 -11 100 -3 28 -7
68 -10 90 -2 22 -7 60 -10 85 -3 25 -7 55 -9 67 -3 12 -7 48 -11 80 -3 32 -8
65 -10 73 -2 8 -6 33 -10 55 -7 50 -13 91 -20 130 -3 17 -8 46 -11 65 -2 19
-7 46 -9 60 -3 14 -12 66 -20 115 -9 50 -18 101 -21 115 -6 34 -34 190 -38
215 -2 11 -6 35 -10 53 -5 19 -9 43 -11 55 -1 12 -12 74 -23 137 -26 142 -72
407 -72 414 0 19 21 3 160 -116 128 -110 369 -366 473 -503 4 -5 21 -28 38
-50 17 -22 50 -67 72 -100 22 -33 44 -61 49 -63 4 -2 8 -7 8 -12 0 -5 17 -35
38 -67 76 -114 134 -216 206 -361 74 -148 126 -258 126 -268 0 -3 9 -26 21
-51 11 -25 23 -53 25 -62 2 -9 25 -76 50 -150 40 -115 95 -311 110 -391 3 -14
7 -32 9 -40 3 -8 7 -33 10 -55 3 -22 10 -62 15 -90 6 -27 12 -68 16 -90 3 -22
7 -51 9 -64 11 -63 19 -184 19 -261 -1 -83 -4 -110 -26 -220 -6 -30 -12 -65
-13 -77 -2 -11 -6 -30 -9 -41 -4 -11 -9 -31 -12 -44 -3 -13 -6 -27 -8 -33 -2
-5 -6 -23 -10 -40 -4 -16 -14 -46 -21 -65 -7 -19 -13 -39 -14 -45 -2 -15 -31
-107 -41 -130 -5 -11 -23 -56 -41 -100 -35 -91 -113 -253 -161 -337 -74 -128
-113 -188 -120 -188 -4 0 -8 -6 -8 -12 -1 -7 -23 -42 -51 -76 l-51 -64 -49 69
c-79 108 -187 303 -181 325 1 5 -3 8 -8 8 -6 0 -10 10 -10 23 0 13 -4 27 -9
32 -8 9 -46 118 -56 161 -2 10 -9 37 -15 59 -5 22 -14 67 -20 100 -5 33 -12
70 -14 81 -17 84 -20 218 -13 589 2 82 -1 100 -13 100 -18 0 -48 -78 -56 -148
-4 -29 -8 -55 -10 -58 -7 -12 -18 -232 -18 -364 0 -134 9 -310 20 -405 12
-114 15 -136 19 -155 3 -11 7 -36 10 -55 10 -70 47 -238 65 -295 22 -70 79
-234 98 -282 l21 -51 -47 -42 c-63 -57 -188 -138 -292 -190 -78 -39 -243 -107
-280 -115 -8 -2 -31 -9 -50 -15 -166 -52 -404 -75 -585 -56 -105 10 -122 13
-140 23 -14 8 -14 11 3 34 11 13 46 76 78 139 32 63 62 117 67 118 4 2 7 9 7
16 0 7 11 34 24 62 13 27 33 74 45 104 12 30 29 68 37 83 8 16 14 37 14 48 0
10 4 19 8 19 5 0 9 6 9 13 0 6 19 65 41 130 23 64 41 119 42 122 0 9 5 26 13
45 6 16 56 211 63 243 2 10 5 26 8 35 3 9 8 33 11 52 3 19 10 51 15 70 5 19
12 51 15 70 3 19 8 42 10 50 2 8 7 35 11 60 8 60 12 80 18 110 3 14 7 48 10
75 3 28 8 66 10 85 5 35 12 93 21 180 26 240 25 668 -1 860 -3 25 -8 61 -10
80 -4 43 -10 83 -29 185 -20 110 -23 126 -30 155 -3 14 -8 36 -11 50 -3 14 -8
34 -11 45 -4 11 -7 22 -8 25 -3 20 -21 80 -47 165 -18 55 -33 102 -33 105 -1
3 -5 14 -10 25 -4 11 -21 54 -37 95 -37 95 -49 121 -112 247 -68 135 -79 157
-110 203 -14 22 -26 42 -26 45 0 8 -114 173 -140 202 -11 13 -20 26 -20 29 0
7 -90 115 -110 131 -8 7 -12 13 -7 13 14 0 -278 287 -368 361 -49 41 -96 80
-103 87 -7 6 -17 12 -20 12 -4 0 -18 10 -32 23 -48 43 -246 171 -402 261 -54
30 -239 122 -313 156 -27 12 -75 33 -105 47 -30 14 -63 27 -72 28 -9 2 -26 8
-37 14 -10 6 -66 27 -123 47 -57 19 -112 39 -123 44 -32 13 -290 87 -400 114
-89 21 -152 35 -235 51 -14 3 -47 9 -75 15 -66 13 -150 28 -200 35 -11 2 -41
6 -67 10 -46 7 -47 7 -42 -16 11 -45 25 -124 29 -159 2 -19 7 -46 11 -60 7
-27 6 -26 28 -155 9 -49 18 -101 21 -115 3 -14 7 -40 10 -59 2 -18 7 -41 9
-50 3 -9 7 -32 10 -51 3 -19 8 -48 11 -65 19 -104 28 -154 31 -180 2 -16 8
-52 14 -80 6 -27 13 -63 16 -80 2 -16 12 -66 20 -110 8 -44 17 -93 19 -110 3
-16 7 -41 10 -55 9 -37 25 -130 31 -170 3 -19 9 -51 14 -70 5 -19 11 -55 14
-80 4 -25 11 -63 16 -85 5 -22 9 -41 9 -43 0 -2 7 -44 15 -92 3 -14 12 -61 20
-105 21 -107 29 -156 30 -177 0 -10 3 -18 6 -18 3 0 6 -8 6 -17 1 -22 11 -79
23 -135 6 -23 8 -45 6 -48 -2 -4 -35 -15 -72 -24 -37 -10 -72 -19 -78 -21 -5
-1 -14 -4 -20 -5 -147 -40 -572 -230 -583 -261 -2 -5 -8 -9 -13 -9 -14 0 -144
-89 -185 -127 -14 -13 -28 -23 -32 -23 -17 0 -322 -310 -322 -326 0 -3 -7 -12
-16 -21 -16 -16 -134 -189 -134 -197 0 -2 -17 -33 -38 -67 -59 -100 -150 -307
-167 -379 -2 -8 -10 -35 -18 -60 -18 -55 -44 -161 -53 -215 -3 -22 -8 -43 -9
-46 -2 -3 -7 -28 -10 -55 -4 -27 -8 -60 -11 -74 -13 -84 -19 -190 -19 -380 1
-220 9 -340 31 -450 3 -14 6 -32 6 -40 0 -8 4 -31 8 -50 5 -19 11 -48 13 -65
6 -37 57 -227 64 -239 3 -4 9 -22 13 -40 11 -43 52 -149 85 -221 16 -33 29
-62 30 -65 3 -14 63 -124 103 -190 116 -192 318 -419 489 -548 45 -34 85 -62
88 -62 3 0 14 -8 25 -18 10 -9 36 -26 57 -37 21 -11 40 -22 43 -26 13 -15 292
-143 335 -154 6 -1 19 -5 30 -9 59 -22 211 -67 221 -65 5 1 11 0 14 -1 13 -5
63 -15 115 -24 17 -3 41 -7 55 -10 193 -37 645 -43 830 -12 14 3 42 7 62 10
30 5 146 30 228 50 29 7 135 44 186 64 29 12 55 18 58 15 3 -4 6 -1 6 5 0 7 9
12 20 12 11 0 20 5 20 10 0 6 6 10 14 10 13 0 61 24 166 82 68 38 206 133 240
164 l25 23 45 -35 c25 -20 58 -45 73 -57 16 -12 42 -32 57 -44 15 -13 31 -23
34 -23 3 0 31 -16 63 -37 82 -52 255 -131 323 -147 8 -2 33 -9 55 -14 112 -30
169 -37 320 -36 156 0 256 17 395 65 102 36 262 112 308 146 17 13 32 20 32
16 0 -4 4 -3 8 3 4 6 29 26 57 44 55 38 52 36 150 116 84 69 278 265 358 362
l59 71 51 -53 c152 -154 331 -272 509 -335 143 -51 326 -69 468 -47 25 4 57 9
71 12 65 10 212 59 297 99 99 47 215 114 220 127 2 4 8 8 14 8 11 0 59 36 155
117 l26 21 86 -57 c156 -104 398 -213 526 -235 17 -3 62 -12 100 -19 41 -8
122 -12 195 -11 143 3 168 6 295 37 80 19 307 115 325 137 3 4 21 15 40 26 19
10 37 21 40 25 3 3 26 20 53 39 26 18 47 37 47 42 0 4 5 8 10 8 6 0 18 8 29
17 138 131 154 148 266 278 74 85 275 389 275 415 0 5 5 10 10 10 6 0 10 4 10
9 0 4 29 63 64 130 35 67 64 123 64 124 -1 1 10 27 24 57 15 30 34 73 43 94
26 58 84 236 78 236 -3 0 -1 6 5 13 8 10 16 36 28 92 1 6 9 37 17 70 9 33 23
101 32 150 10 50 19 99 21 110 2 11 6 40 9 65 3 25 8 54 10 65 19 96 27 589
12 760 -10 108 -22 213 -32 270 -3 17 -8 46 -11 65 -3 19 -8 46 -10 60 -2 14
-7 41 -11 60 -4 19 -8 42 -9 50 -1 8 -6 26 -9 40 -4 14 -8 34 -10 45 -2 11
-15 65 -30 120 -14 55 -28 107 -30 115 -3 16 -53 175 -63 200 -3 8 -6 17 -7
20 -9 38 -105 288 -141 368 -43 96 -71 156 -124 262 -73 146 -94 184 -101 190
-3 3 -8 12 -11 21 -4 9 -36 65 -72 124 -36 59 -66 111 -66 115 0 5 -3 10 -8
12 -4 2 -27 34 -51 71 -24 38 -57 85 -73 105 -15 20 -37 48 -47 62 -11 14 -29
35 -40 47 -12 12 -21 25 -21 28 0 4 -6 12 -12 19 -7 7 -40 44 -73 82 -76 87
-340 351 -424 424 -35 30 -69 60 -75 65 -6 6 -33 28 -61 50 -27 22 -52 43 -55
46 -8 10 -272 210 -326 247 -94 64 -217 142 -224 142 -5 0 -10 3 -12 8 -4 9
-164 102 -177 102 -5 0 -11 4 -13 9 -5 12 -210 109 -303 143 -86 31 -181 45
-204 29z m-5786 -1167 c17 -3 38 -7 48 -10 11 -3 29 -8 40 -9 34 -6 190 -42
239 -56 23 -7 46 -13 51 -15 4 -1 8 -2 10 -4 2 -2 14 -5 52 -13 11 -3 49 -15
85 -27 36 -12 72 -23 80 -25 23 -5 222 -81 293 -111 34 -15 78 -33 97 -42 89
-37 347 -171 430 -222 148 -90 320 -210 320 -222 0 -4 5 -8 11 -8 19 0 162
-124 288 -251 83 -82 112 -115 181 -199 25 -30 47 -57 50 -60 19 -19 170 -248
170 -258 0 -6 3 -12 8 -14 4 -1 22 -31 40 -65 37 -72 38 -71 -65 -47 -91 21
-104 24 -133 29 -14 2 -34 6 -45 9 -53 13 -202 43 -215 44 -8 1 -37 6 -65 12
-27 6 -63 13 -80 15 -16 2 -39 6 -50 8 -28 6 -125 20 -224 32 -30 3 -57 7 -60
9 -3 2 -46 7 -95 11 -50 4 -99 9 -110 11 -88 17 -700 25 -841 10 -33 -3 -85
-8 -115 -10 -30 -3 -77 -9 -105 -14 -75 -12 -118 -10 -120 8 -2 8 -10 56 -20
105 -9 50 -19 101 -21 115 -3 14 -11 57 -19 95 -7 39 -16 86 -19 105 -6 38
-12 69 -22 115 -4 17 -8 39 -10 50 -2 11 -5 31 -8 45 -3 14 -10 50 -16 80 -10
57 -16 88 -26 130 -2 14 -7 39 -9 55 -3 17 -7 41 -10 55 -8 38 -15 72 -20 105
-3 17 -10 53 -15 80 -5 28 -12 61 -14 75 -3 14 -7 34 -9 45 -3 11 -8 42 -11
68 -4 27 -10 59 -12 70 -3 12 -6 36 -8 54 -2 17 -7 37 -11 43 -6 9 3 10 36 5
24 -3 58 -9 74 -11z m1470 -1739 c72 -4 151 -7 177 -8 27 -1 48 -4 48 -7 0 -3
15 -5 33 -6 17 0 66 -4 107 -8 41 -4 91 -9 110 -11 100 -9 162 -15 225 -20 39
-3 86 -8 106 -11 19 -2 98 -6 174 -9 l139 -4 16 -33 c34 -71 116 -340 134
-442 3 -16 10 -52 15 -80 11 -56 21 -130 26 -191 2 -22 7 -71 11 -110 18 -190
-3 -528 -42 -657 -7 -23 -14 -57 -20 -93 -3 -16 -7 -37 -10 -45 -3 -8 -21 -67
-39 -130 -33 -111 -88 -266 -122 -340 -77 -170 -122 -253 -208 -385 -67 -102
-139 -196 -215 -279 -65 -72 -240 -236 -251 -236 -22 0 -227 197 -289 279 -14
18 -30 38 -36 45 -19 20 -109 157 -136 206 -55 101 -177 410 -161 410 3 0 1 6
-5 13 -11 14 -42 148 -57 252 -18 124 -22 186 -19 335 1 91 5 174 7 185 3 11
8 42 11 68 7 52 21 127 32 167 13 49 16 98 6 104 -11 7 -91 -196 -118 -304
-39 -155 -48 -195 -59 -265 -2 -11 -6 -33 -9 -50 -3 -16 -8 -52 -11 -80 -3
-27 -9 -81 -13 -120 -18 -166 -1 -517 33 -665 3 -14 8 -41 11 -60 7 -47 37
-159 65 -245 13 -38 23 -72 23 -75 3 -19 92 -228 102 -241 8 -8 14 -21 14 -27
0 -7 20 -48 45 -93 25 -45 45 -84 45 -87 0 -3 7 -14 16 -23 16 -17 15 -19 -12
-30 -16 -7 -31 -13 -34 -14 -3 0 -14 -6 -25 -12 -38 -20 -272 -89 -370 -109
-204 -41 -335 -52 -560 -50 -115 2 -232 6 -260 10 -27 4 -63 8 -80 11 -241 32
-487 116 -702 238 -120 69 -358 275 -463 402 -42 51 -136 179 -151 205 -8 14
-17 27 -20 30 -10 10 -76 126 -110 195 -19 39 -37 72 -41 73 -5 2 -8 9 -8 17
0 7 -12 39 -26 71 -41 93 -99 277 -110 354 -9 54 -13 75 -14 75 -3 0 -8 45
-15 110 -11 121 -5 264 16 354 6 25 12 53 14 61 5 25 37 103 58 140 31 57 71
124 79 135 4 6 34 46 67 90 84 114 172 209 272 295 28 25 57 50 63 55 11 11
120 90 153 112 16 12 36 24 138 88 17 11 36 20 44 21 8 2 17 7 20 12 7 10 69
44 73 40 2 -2 19 7 38 19 87 53 544 223 601 223 12 0 19 -7 19 -18 0 -9 16
-96 35 -192 19 -96 36 -186 39 -200 2 -14 7 -36 10 -50 3 -14 8 -36 10 -50 3
-14 10 -50 16 -80 11 -55 18 -87 25 -125 2 -11 6 -27 9 -35 3 -8 7 -32 10 -52
5 -33 13 -70 32 -153 3 -11 7 -31 10 -45 5 -23 27 -124 41 -180 3 -14 8 -32 9
-41 21 -103 57 -204 74 -204 51 0 58 259 16 595 -4 30 -9 66 -11 80 -2 14 -7
50 -10 80 -3 30 -8 62 -10 70 -2 8 -7 38 -11 65 -8 66 -12 90 -14 90 -1 0 -3
18 -5 40 -2 22 -12 92 -24 155 -11 63 -22 129 -25 145 -3 17 -10 57 -15 90 -6
32 -7 63 -3 67 8 8 26 13 87 23 17 3 53 10 80 15 28 5 68 12 90 15 22 3 51 7
65 10 14 2 52 7 85 10 33 4 76 9 95 11 76 10 151 15 305 20 88 3 161 7 162 8
2 2 108 -2 258 -9z"/>
<path d="M7260 8897 c-79 -47 -197 -167 -266 -269 -42 -62 -163 -286 -164
-303 0 -3 -7 -21 -15 -41 -20 -48 -44 -131 -51 -174 -3 -19 -6 -37 -7 -40 -3
-17 35 -80 59 -97 52 -37 147 -49 204 -27 8 3 26 8 40 10 14 2 45 9 70 14 81
18 98 19 114 7 14 -11 5 -23 -66 -94 -98 -97 -206 -184 -303 -243 -67 -41
-257 -140 -269 -140 -3 0 -34 -13 -68 -29 -53 -24 -93 -40 -118 -46 -3 -1 -12
-5 -20 -8 -35 -15 -155 -58 -160 -58 -3 1 -18 -3 -35 -8 -16 -6 -50 -15 -74
-21 -68 -18 -33 -28 86 -25 139 4 193 11 313 37 66 14 69 15 73 18 2 1 8 3 52
14 11 2 37 12 57 20 21 9 41 17 45 17 17 3 41 13 123 52 142 66 212 121 291
227 27 36 53 70 59 77 5 7 10 14 10 17 0 2 21 39 46 82 110 187 172 380 135
425 -20 23 -53 29 -106 17 -22 -6 -51 -12 -65 -14 -14 -2 -41 -7 -60 -10 -53
-10 -173 -13 -185 -6 -5 4 -12 7 -15 7 -10 0 -54 35 -45 35 5 0 4 5 -3 12 -27
27 -5 98 48 147 68 64 89 81 99 81 6 0 11 4 11 8 0 5 21 19 48 31 43 20 50 29
92 114 25 51 47 94 50 97 6 6 60 117 60 123 0 12 -34 -1 -90 -36z"/>
</g>
</svg>
