<svg width="24" height="22" viewBox="0 0 24 22" xmlns="http://www.w3.org/2000/svg">
    <path d="M20.672 2.27c-.293-.762-.996-1.29-1.817-1.29H5.145c-.82 0-1.524.528-1.817 1.29L.75 9.77v9.96c0 .704.586 1.29 1.23 1.29h1.29c.644 0 1.23-.586 1.23-1.29V18.5h15v1.23c0 .704.586 1.29 1.23 1.29h1.29c.644 0 1.23-.586 1.23-1.29V9.77l-2.578-7.5zM5.555 3.5h12.89l1.29 3.75H4.264l1.29-3.75zM20.73 15.98H3.27v-5.8l.117-.41h17.226l.117.41v5.8zM4.5 12.875c0 1.055.82 1.875 1.875 1.875 1.055 0 1.875-.82 1.875-1.875C8.25 11.82 7.43 11 6.375 11 5.32 11 4.5 11.82 4.5 12.875zm11.25 0c0 1.055.82 1.875 1.875 1.875 1.055 0 1.875-.82 1.875-1.875 0-1.055-.82-1.875-1.875-1.875-1.055 0-1.875.82-1.875 1.875z" fill="#011E41" fill-rule="nonzero"/>
</svg>
