<svg width="22" height="30" viewBox="0 0 22 30" xmlns="http://www.w3.org/2000/svg">
    <path d="M2.466 20.295c0 .096.024.17.076.22.052.05.128.075.227.075.093 0 .167-.024.216-.074.049-.051.072-.125.072-.22 0-.092-.023-.162-.072-.21-.05-.05-.123-.072-.216-.072-.098 0-.175.023-.227.07-.051.049-.076.12-.076.211zm.806 0c0 .096.024.17.076.22.052.05.129.075.226.075.094 0 .167-.024.216-.074.05-.051.073-.125.073-.22 0-.092-.024-.162-.073-.21-.049-.05-.122-.072-.216-.072-.097 0-.174.023-.226.07-.052.049-.076.12-.076.211zm7.192-.509c0 .096.025.17.076.22.052.05.13.075.227.075.093 0 .167-.024.217-.075.049-.05.072-.124.072-.22 0-.09-.024-.162-.073-.21-.049-.048-.123-.071-.216-.071-.098 0-.174.023-.226.07-.052.049-.077.12-.077.211zm5.827.042c0 .096.024.17.076.22.051.05.128.075.226.075.094 0 .168-.024.217-.074.049-.05.072-.125.072-.22 0-.092-.023-.163-.072-.21-.05-.049-.123-.072-.217-.072-.098 0-.174.023-.226.07-.051.049-.076.12-.076.211zm4.86 4.689c0 .096.025.17.076.22.052.05.13.074.227.074.093 0 .168-.024.217-.074.049-.05.072-.125.072-.22 0-.091-.023-.162-.073-.21-.049-.048-.122-.071-.216-.071-.098-.001-.174.023-.226.07-.052.048-.077.12-.077.21zm-2.654 1.26c0 .096.025.17.076.22.052.05.129.074.227.074.093 0 .167-.023.216-.073.05-.051.073-.125.073-.22 0-.092-.024-.163-.073-.211-.05-.048-.123-.071-.216-.071-.098 0-.174.023-.226.07-.052.049-.077.12-.077.211zm3.482-4.675v1.288c0 .377-.116.672-.348.884-.214.194-.498.29-.851.29h-3.245c-.415 0-.732-.132-.945-.396-.222.264-.541.397-.953.397h-4.39a.936.936 0 0 1-.436-.091c-.128.048-.243.09-.434.09H6.65c-.415 0-.732-.132-.945-.396-.222.264-.544.397-.96.397H1.15c-.348 0-.63-.105-.838-.314-.209-.21-.312-.494-.312-.847v-1.121h.5v1.068c.003.52.248.769.755.771h3.441c.507-.002.753-.252.755-.771V21.1h.501v1.276c.002.502.247.743.755.745h3.337c-.353-.32-.53-.701-.53-1.138 0-.434.128-.78.382-1.037.233-.23.539-.345.915-.345.429 0 .765.15 1 .446.2.247.298.56.298.936 0 .44-.175.821-.523 1.138h3.995c.508-.002.753-.243.756-.745v-1.274l.5-.001v1.275c.002.502.247.743.755.745h3.132c.507-.002.752-.243.755-.745v-1.274l.5-.001zm-11.986.868c0 .242.074.464.222.669.147.204.338.345.572.424l.023.005.027-.006c.234-.079.426-.22.575-.423.15-.205.225-.425.225-.662 0-.29-.075-.52-.224-.687a.765.765 0 0 0-.602-.252c-.253 0-.45.084-.597.252-.147.168-.22.394-.22.68zM21.6 29.472H22v.464h-.463c-.706 0-1.15-.423-1.15-1.101v-1.618h-.728V26.8h.728v-.93h.52v.93h1.074v.416h-1.073v1.591c0 .424.25.664.691.664zm-3.09.46h.522v-3.153h-.522v3.152zm-.633-3.131v.416H16.86v2.714h-.52v-2.714h-.654V26.8h.653v-.257c0-.672.322-1.004 1.063-1.004h.468v.4h-.373c-.47 0-.653.17-.653.615v.246h1.032zm-5.368 1.746c.081.584.538.967 1.165.967.459 0 .828-.203 1.032-.543h.55c-.28.65-.863 1.029-1.582 1.029-.96 0-1.689-.706-1.689-1.645 0-.939.729-1.645 1.69-1.645 1.005 0 1.669.737 1.669 1.658 0 .06-.006.12-.011.18h-2.824zm2.312-.458c-.112-.561-.56-.91-1.147-.91-.601 0-1.046.36-1.154.91h2.3zm-4.128.072c0-.64-.316-.997-.892-.997-.566 0-1.003.456-1.003 1.048v1.72h-.521v-3.153h.37l.102.494c.25-.35.674-.562 1.186-.562.787 0 1.28.562 1.28 1.332v1.888h-.522v-1.77zm-6.062.386c.082.584.54.967 1.167.967.458 0 .826-.203 1.03-.543h.55c-.28.65-.862 1.029-1.58 1.029-.962 0-1.69-.706-1.69-1.645 0-.939.728-1.645 1.69-1.645 1.005 0 1.669.737 1.669 1.658 0 .06-.006.12-.012.18H4.63zm2.313-.458c-.112-.561-.56-.91-1.146-.91h-.001c-.601 0-1.046.36-1.154.91h2.301zM1.79 30C.788 30 .035 29.302.033 28.36v-2.82h.522v1.62c.312-.283.743-.45 1.235-.45 1.003 0 1.756.7 1.756 1.645 0 .944-.753 1.645-1.756 1.645zm0-2.81c-.71 0-1.225.49-1.225 1.165S1.08 29.52 1.79 29.52c.709 0 1.223-.49 1.223-1.165S2.499 27.19 1.79 27.19zM13.458 9.42c-1.21-1.842-2.124-4.166-3.292-6.188-.584-1.013-1.234-1.95-2.022-2.714A7.57 7.57 0 0 0 7.55 0h-.537c.113.078.225.16.333.245 1.094.858 1.942 2.073 2.696 3.424 1.133 2.025 2.05 4.345 3.317 6.181.634.919 1.358 1.718 2.245 2.294.567.367 1.2.642 1.915.797.033-.099.063-.199.09-.3a5.388 5.388 0 0 1-1.195-.405c-1.215-.579-2.149-1.588-2.956-2.817zM13 12.733c-.805-.852-1.348-1.962-1.8-3.185-.68-1.832-1.157-3.907-2.08-5.705-.461-.898-1.036-1.728-1.809-2.418a6.996 6.996 0 0 0-2.425-1.4v.363c.736.266 1.356.62 1.887 1.04 1.188.938 1.936 2.22 2.514 3.631.431 1.058.767 2.185 1.123 3.286.536 1.651 1.117 3.244 2.17 4.447a5.53 5.53 0 0 0 1.988 1.454 6.867 6.867 0 0 0 1.875.496c.094-.1.184-.205.268-.312-.787-.08-1.455-.256-2.03-.51A5.173 5.173 0 0 1 13 12.734zm-.348-2.5C11.565 8.37 10.874 6.007 9.83 3.93c-.524-1.039-1.137-2.008-1.942-2.806A6.848 6.848 0 0 0 6.402 0h-.743c.521.226.984.508 1.4.837C8.202 1.735 9 2.984 9.665 4.365c1 2.07 1.694 4.428 2.85 6.297.579.934 1.276 1.748 2.192 2.333a6.03 6.03 0 0 0 2.391.872c.06-.1.114-.203.167-.307a5.948 5.948 0 0 1-1.717-.482c-1.279-.586-2.171-1.601-2.895-2.844zm3.362-4.385c.034-.092.066-.186.095-.281-1.531-1.626-3.118-3.516-4.59-5.12-.137-.15-.274-.299-.409-.444A15.943 15.943 0 0 0 10.78 0h-.033c.265.28.534.573.808.875 1.433 1.58 2.972 3.402 4.46 4.974zm.262-1.316.001-.056c0-.101-.004-.2-.01-.3-1.358-1.333-2.766-2.79-4.062-4.08a7.533 7.533 0 0 0-.401-.05l.127.127c1.379 1.37 2.894 2.94 4.345 4.36zm1.005 6.861c-1.151-.572-2.126-1.574-3.015-2.788-1.334-1.819-2.47-4.103-3.762-6.073C9.884 1.588 9.228.715 8.491 0h-.446c.873.789 1.645 1.829 2.375 2.972 1.266 1.979 2.408 4.26 3.784 6.066.689.902 1.438 1.688 2.298 2.255.388.255.8.465 1.238.621.01-.103.017-.207.02-.312a5.451 5.451 0 0 1-.48-.208zm-5.172 2.17c-.783-.856-1.249-1.977-1.608-3.217-.542-1.859-.838-3.975-1.677-5.824-.421-.925-.98-1.784-1.778-2.503A7.118 7.118 0 0 0 4.886.698v.385c.62.262 1.147.578 1.6.937C7.723 3 8.42 4.313 8.908 5.754c.366 1.08.613 2.228.883 3.348.203.84.42 1.664.712 2.432.438 1.15 1.052 2.18 2.058 2.927.738.547 1.681.935 2.899 1.114.148-.095.287-.197.42-.305-.81-.086-1.49-.26-2.067-.507a4.833 4.833 0 0 1-1.704-1.199zm3.334-6.656c.056-.075.11-.153.162-.237-1.49-1.714-2.978-3.776-4.424-5.53-.33-.398-.656-.781-.98-1.141h-.375c.444.483.895 1.015 1.35 1.575 1.39 1.708 2.822 3.679 4.267 5.333zm.057-4.854c-.506-.458-1.012-.92-1.51-1.372a4.466 4.466 0 0 0-.695-.317c.841.763 1.72 1.565 2.588 2.35a4.243 4.243 0 0 0-.383-.66zM4.886 14.81a203.856 203.856 0 0 0 1.851 1.684h.348c-.715-.64-1.458-1.319-2.2-2v.316zm0-2.934v.401c1.211 1.4 2.46 2.86 3.663 4.085l.13.132h.372c-.178-.176-.36-.36-.54-.548-1.191-1.236-2.427-2.689-3.625-4.07zm0 4.023c.24.2.482.399.72.595h.342c-.35-.289-.706-.582-1.062-.878v.283zm4.707-1.708c-1.3-1.797-2.396-4.055-3.653-6.004a18.534 18.534 0 0 0-1.054-1.483v.503c.333.443.652.919.964 1.414 1.231 1.957 2.331 4.212 3.675 5.998.54.717 1.122 1.36 1.77 1.875h.351l.156-.001c-.82-.577-1.54-1.377-2.209-2.302zm-4.707-.577c.96.987 1.935 1.983 2.867 2.88h.358C7.07 15.5 5.967 14.37 4.886 13.258v.355zm10.163-5.389c.744.889 1.52 1.661 2.351 2.217.097.064.193.125.29.183a4.553 4.553 0 0 0-.088-.395c-.884-.585-1.722-1.439-2.529-2.434-1.458-1.796-2.817-4.042-4.23-5.958A21.683 21.683 0 0 0 9.348 0h-.401c.63.655 1.243 1.435 1.85 2.274 1.4 1.932 2.764 4.175 4.251 5.95zm-4.734 4.802c-1.07-1.854-1.74-4.202-2.77-6.27-.514-1.033-1.12-1.998-1.92-2.793a7.127 7.127 0 0 0-.74-.64v.422c1.09.89 1.855 2.105 2.493 3.443.983 2.06 1.657 4.405 2.796 6.263.571.93 1.261 1.74 2.173 2.32.349.224.73.413 1.146.563.22-.043.427-.094.623-.152a5.563 5.563 0 0 1-.932-.33c-1.273-.582-2.155-1.59-2.87-2.826zm-.361.581C8.769 11.783 7.886 9.48 6.743 7.471c-.54-.946-1.137-1.826-1.857-2.56v.468c.656.729 1.215 1.595 1.728 2.525 1.107 2.009 1.994 4.309 3.236 6.13.622.912 1.334 1.704 2.214 2.275.089.057.178.112.27.165.204-.012.399-.03.587-.052l-.052-.024c-1.206-.574-2.125-1.573-2.915-2.79zm-.723 1.167c-1.416-1.768-2.723-3.982-4.095-5.872l-.25-.34v.495l.198.277c1.358 1.906 2.67 4.116 4.116 5.865.389.47.786.906 1.198 1.294h.43c-.55-.488-1.08-1.074-1.597-1.719zm2.594-.65c-.802-.848-1.34-1.955-1.787-3.173-.672-1.828-1.14-3.899-2.056-5.692-.459-.897-1.03-1.725-1.8-2.413-.381-.34-.81-.645-1.296-.907v.395c.27.157.523.33.758.515 1.185.937 1.928 2.215 2.5 3.622.427 1.056.759 2.18 1.11 3.279.529 1.645 1.102 3.234 2.15 4.434.525.6 1.17 1.099 1.982 1.45.368.16.77.288 1.21.383.19-.075.368-.159.537-.249a6.343 6.343 0 0 1-1.634-.46 5.1 5.1 0 0 1-1.674-1.183zM8.87 15.36c.356.405.713.785 1.069 1.134h-.392a21.664 21.664 0 0 1-.673-.712c-1.352-1.498-2.686-3.34-3.99-5.017v-.452c1.31 1.669 2.644 3.523 3.986 5.047z" fill="#E90030" fill-rule="nonzero"/>
</svg>
