<svg width="30" height="16" viewBox="0 0 30 16" xmlns="http://www.w3.org/2000/svg">
    <path d="M4.98 9.23c1.407 0 2.52-1.113 2.52-2.46a2.5 2.5 0 0 0-2.52-2.52c-1.347 0-2.46 1.113-2.46 2.52a2.476 2.476 0 0 0 2.46 2.46zm1.407 1.407a9.722 9.722 0 0 0-1.407-.117c-1.23 0-2.402.234-3.457.703C.586 11.633 0 12.512 0 13.566V15.5h5.625v-1.992c0-1.055.293-2.051.762-2.871zM25.02 9.23a2.476 2.476 0 0 0 2.46-2.46c0-1.407-1.113-2.52-2.46-2.52a2.5 2.5 0 0 0-2.52 2.52c0 1.347 1.113 2.46 2.52 2.46zM30 13.566c0-1.054-.586-1.933-1.523-2.343-1.055-.47-2.227-.703-3.457-.703-.528 0-.997.058-1.407.117.469.82.762 1.816.762 2.87V15.5H30v-1.934zm-9.727-3.515A12.976 12.976 0 0 0 15 8.937c-2.05 0-3.809.47-5.273 1.114-1.348.586-2.227 1.933-2.227 3.457V15.5h15v-1.992c0-1.524-.879-2.871-2.227-3.457zm-10.195 2.93c.117-.293.176-.47 1.172-.82a10.15 10.15 0 0 1 3.75-.704c1.29 0 2.578.234 3.75.703.996.352 1.055.527 1.172.82h-9.844zM15 3.02c.703 0 1.23.527 1.23 1.23S15.703 5.48 15 5.48s-1.23-.527-1.23-1.23.527-1.23 1.23-1.23zM15 .5c-2.05 0-3.75 1.7-3.75 3.75S12.95 8 15 8s3.75-1.7 3.75-3.75S17.05.5 15 .5z" fill="#011E41" fill-rule="nonzero"/>
</svg>
