<svg width="18" height="26" viewBox="0 0 18 26" xmlns="http://www.w3.org/2000/svg">
    <path d="M5.895 9.25H4.02V20.5h1.875V9.25zm4.042 0H8.062V20.5h1.875V9.25zm4.043 0h-1.875V20.5h1.875V9.25zm1.29-3.75h-2.52V1.75c0-.703-.586-1.23-1.23-1.23H6.48c-.644 0-1.23.527-1.23 1.23V5.5H2.73C1.383 5.5.27 6.613.27 8.02v13.71c0 1.407 1.113 2.52 2.46 2.52 0 .703.586 1.23 1.29 1.23.644 0 1.23-.527 1.23-1.23h7.5c0 .703.586 1.23 1.23 1.23.704 0 1.29-.527 1.29-1.23 1.347 0 2.46-1.113 2.46-2.52V8.02c0-1.407-1.113-2.52-2.46-2.52zM7.125 2.395h3.75V5.5h-3.75V2.395zM15.27 21.73H2.73V8.02h12.54v13.71z" fill="#011E41" fill-rule="nonzero"/>
</svg>
