<svg width="28" height="23" viewBox="0 0 28 23" xmlns="http://www.w3.org/2000/svg">
    <path d="M11.387 17.68c.286-.287.616-.43.988-.43s.695.136.967.408c.272.272.408.595.408.967v3.438a.67.67 0 0 1-.193.494.67.67 0 0 1-.495.193h-1.374a.67.67 0 0 1-.495-.193.67.67 0 0 1-.193-.494v-3.438c0-.372.129-.688.387-.945zm5.8-1.805c.144.086.33.2.56.344.228.143.536.487.923 1.031.387.544.58 1.117.58 1.719v3.093a.67.67 0 0 1-.193.495.67.67 0 0 1-.494.193h-2.75a.67.67 0 0 1-.495-.193.67.67 0 0 1-.193-.494v-3.094c0-.602.172-1.16.516-1.676.343-.516.687-.874 1.03-1.074l.517-.344zm3.825 1.805c.286-.287.616-.43.988-.43s.695.136.967.408c.272.272.408.595.408.967v3.438a.67.67 0 0 1-.193.494.67.67 0 0 1-.494.193h-1.375a.67.67 0 0 1-.495-.193.67.67 0 0 1-.193-.494v-3.438c0-.372.129-.688.387-.945zm5.715-5.07c.515.257.773.658.773 1.203v8.25a.67.67 0 0 1-.193.494.67.67 0 0 1-.494.193h-.688a.67.67 0 0 1-.494-.193.67.67 0 0 1-.194-.494V14.5h-16.5v7.563a.67.67 0 0 1-.193.494.67.67 0 0 1-.494.193h-.688a.67.67 0 0 1-.494-.193.67.67 0 0 1-.193-.494V9H2.062v13.063a.67.67 0 0 1-.193.494.67.67 0 0 1-.494.193H.687a.67.67 0 0 1-.494-.193.67.67 0 0 1-.193-.494V5.905c0-.63.15-1.246.451-1.847.301-.602.673-1.089 1.117-1.461.444-.373.888-.71 1.332-1.01.444-.3.824-.523 1.14-.666L4.468.75c.114.057.272.129.472.215.2.086.559.286 1.075.601A8.61 8.61 0 0 1 7.39 2.598c.4.372.759.859 1.074 1.46.315.602.473 1.218.473 1.848v.903c.601-.487 1.36-.989 2.277-1.504 2.292-1.232 4.282-2.75 5.973-4.555 1.69 1.805 3.68 3.323 5.972 4.555 1.347.744 2.406 1.518 3.18 2.32.773.802 1.16 1.719 1.16 2.75 0 .802-.258 1.547-.773 2.234zM6.875 6.937V5.905c0-1.031-.802-1.99-2.406-2.879-1.604.888-2.407 1.848-2.407 2.88v1.03h4.813zm15.855 5.5a3.27 3.27 0 0 0 1.354-.28c.415-.186.745-.437.988-.752a1.65 1.65 0 0 0 .366-1.031c0-.974-1.089-2.063-3.266-3.266-1.948-1.06-3.61-2.205-4.985-3.437-1.375 1.232-3.036 2.377-4.984 3.437-2.177 1.204-3.265 2.292-3.265 3.266 0 .372.121.716.365 1.031.243.315.573.566.988.752.415.186.867.28 1.354.28H22.73z" fill="#011E41" fill-rule="nonzero"/>
</svg>
