<svg width="30" height="22" viewBox="0 0 30 22" xmlns="http://www.w3.org/2000/svg">
    <path d="M26.25 7.25V4.73c0-2.05-1.7-3.75-3.75-3.75h-15c-2.05 0-3.75 1.7-3.75 3.75v2.52C1.7 7.25 0 8.95 0 11v6.27c0 2.05 1.7 3.75 3.75 3.75h22.5c2.05 0 3.75-1.7 3.75-3.75V11c0-2.05-1.7-3.75-3.75-3.75zM6.27 4.73c0-.644.527-1.23 1.23-1.23h15c.703 0 1.23.586 1.23 1.23v3.516c-.761.645-1.23 1.64-1.23 2.754v2.52h-15V11c0-1.113-.469-2.11-1.23-2.754V4.73zm21.21 12.54c0 .644-.527 1.23-1.23 1.23H3.75c-.703 0-1.23-.586-1.23-1.23V11c0-.703.527-1.23 1.23-1.23s1.23.527 1.23 1.23v4.98h20.04V11c0-.703.527-1.23 1.23-1.23s1.23.527 1.23 1.23v6.27z" fill="#011E41" fill-rule="nonzero"/>
</svg>
